# xmcd CD database file
#
# Track frame offsets:
#	150
#	28560
#	52135
#	70290
#	96205
#	111015
#	138882
#	153012
#	182985
#	204765
#
# Disc length: 2952 seconds
#
# Revision: 0
# Processed by: cddbd v1.5PL3 Copyright (c) Steve Scherf et al.
# Submitted via: CDex 1.50
#
DISCID=810b860a
DTITLE=SION - 抱きしめて
DYEAR=1995
DGENRE=Rock
TTITLE0=悲しいのは
TTITLE1=抱きしめて
TTITLE2=カラカラ天気
TTITLE3=よう　よう
TTITLE4=金魚
TTITLE5=どっかに行きたくなったら
TTITLE6=赤んぼからじいちゃんまで
TTITLE7=ボロ列車
TTITLE8=３０年
TTITLE9=帰り道
EXTD=YEAR: 1995
EXTT0=
EXTT1=
EXTT2=
EXTT3=
EXTT4=
EXTT5=
EXTT6=
EXTT7=
EXTT8=
EXTT9=
PLAYORDER=
